# xmcd
#
# Track frame offsets: 
#        150
#        14968
#        41588
#        68876
#        84905
#        106285
#        128116
#        141368
#        160382
#        176054
#        189473
#        202756
#        216688
#        229411
#        246940
#        258190
#        271304
#        281657
#        294067
#        312838
#        328163
#        339290
#
# Disc length: 4738 seconds
#
# Revision: 2
# Processed by: cddbd v1.5.1PL0 Copyright (c) Steve Scherf et al.
# Submitted via: ExactAudioCopy v0.95a5
#
DISCID=51128016
DTITLE=Duster Bennett - The Complete Blue Horizon Sessions CD2
DYEAR=2005
DGENRE=Blues
TTITLE0=I'm The One (Live)
TTITLE1=I Wonder If You Know (How It Is) (Live)
TTITLE2=My Babe ¦ She's My Baby (Live)
TTITLE3=Honest I Do (Live)
TTITLE4=Bright Lights Big City (Live)
TTITLE5=Fresh Country Jam (Live)
TTITLE6=I'm Gonna Wind Up Ending Up Or I'm Gonna End Up Winding You Up
TTITLE6=With You
TTITLE7=Rock Of Ages Cleft For Me
TTITLE8=Slim's Tune
TTITLE9=I Chose To Sing The Blues
TTITLE10=Suger Beet
TTITLE11=I Love My Baby
TTITLE12=Vitamin Pills
TTITLE13=Everyday
TTITLE14=Act Nice And Gentle
TTITLE15=Woman Without Love
TTITLE16=That Mean Old Look
TTITLE17=Sweeter Than Sugar
TTITLE18=On Reconsideration
TTITLE19=Hill St. Rag
TTITLE20=If You Could Hang Your Washing Like You Can Hang Your Lines
TTITLE21=I Want You To Love Me
EXTD=
EXTT0=
EXTT1=
EXTT2=
EXTT3=
EXTT4=
EXTT5=
EXTT6=
EXTT7=
EXTT8=
EXTT9=
EXTT10=
EXTT11=
EXTT12=
EXTT13=
EXTT14=
EXTT15=
EXTT16=
EXTT17=
EXTT18=
EXTT19=
EXTT20=
EXTT21=
PLAYORDER=
